<svg width="507" height="502" viewBox="0 0 507 502" fill="none" xmlns="http://www.w3.org/2000/svg">
<rect width="97.7021" height="97.7021" fill="#DD1E15"/>
<rect x="97.7021" width="97.7021" height="97.7021" fill="#DD1E15"/>
<rect x="195.404" width="97.7021" height="97.7021" fill="#DD1E15"/>
<rect x="293.106" width="97.7021" height="97.7021" fill="#DD1E15"/>
<rect y="293.106" width="97.7021" height="97.7021" fill="#DD1E15"/>
<rect x="97.7021" y="293.106" width="97.7021" height="97.7021" fill="#DD1E15"/>
<rect x="195.404" y="293.106" width="97.7021" height="97.7021" fill="#DD1E15"/>
<rect x="293.106" y="293.106" width="97.7021" height="97.7021" transform="rotate(-90 293.106 293.106)" fill="#DD1E15"/>
<rect x="293.106" y="195.404" width="97.7021" height="97.7021" transform="rotate(-90 293.106 195.404)" fill="#DD1E15"/>
<rect x="293.106" y="97.7021" width="97.7021" height="97.7021" transform="rotate(-90 293.106 97.7021)" fill="#DD1E15"/>
<rect y="390.808" width="97.7021" height="97.7021" transform="rotate(-90 0 390.808)" fill="#DD1E15"/>
<rect y="293.106" width="97.7021" height="97.7021" transform="rotate(-90 0 293.106)" fill="#DD1E15"/>
<rect y="195.404" width="97.7021" height="97.7021" transform="rotate(-90 0 195.404)" fill="#DD1E15"/>
<rect y="97.7021" width="97.7021" height="97.7021" transform="rotate(-90 0 97.7021)" fill="#DD1E15"/>
<rect x="310.87" y="404.131" width="97.7021" height="97.7021" fill="#DD1E15"/>
<rect x="408.572" y="404.131" width="97.7021" height="97.7021" fill="#DD1E15"/>
<rect x="408.572" y="306.429" width="97.7021" height="97.7021" fill="#DD1E15"/>
</svg>
